<?xml version="1.0" encoding="UTF-8" standalone="no"?>
<!-- Created with Inkscape (http://www.inkscape.org/) -->
<svg xmlns:dc="http://purl.org/dc/elements/1.1/" xmlns:cc="http://web.resource.org/cc/" xmlns:rdf="http://www.w3.org/1999/02/22-rdf-syntax-ns#" xmlns:svg="http://www.w3.org/2000/svg" xmlns="http://www.w3.org/2000/svg" xmlns:sodipodi="http://sodipodi.sourceforge.net/DTD/sodipodi-0.dtd" xmlns:inkscape="http://www.inkscape.org/namespaces/inkscape" width="100" height="95" id="svg7877" sodipodi:version="0.32" inkscape:version="0.45.1" version="1.0" sodipodi:docbase="C:\Documents and Settings\Flanker\Desktop" sodipodi:docname="US_Army_E-2.svg" inkscape:output_extension="org.inkscape.output.svg.inkscape">
  <defs id="defs7879"/>
  <sodipodi:namedview id="base" pagecolor="#ffffff" bordercolor="#666666" borderopacity="1.0" gridtolerance="10000" guidetolerance="10" objecttolerance="10" inkscape:pageopacity="0.0" inkscape:pageshadow="2" inkscape:zoom="4.1467261" inkscape:cx="46.71875" inkscape:cy="45.578125" inkscape:document-units="px" inkscape:current-layer="layer1" inkscape:window-width="1280" inkscape:window-height="1003" inkscape:window-x="-4" inkscape:window-y="-4" inkscape:showpageshadow="false" width="100px" height="95px"/>
  <metadata id="metadata7882">
    <rdf:RDF>
      <cc:Work rdf:about="">
        <dc:format>image/svg+xml</dc:format>
        <dc:type rdf:resource="http://purl.org/dc/dcmitype/StillImage"/>
      </cc:Work>
    </rdf:RDF>
  </metadata>
  <g inkscape:label="Layer 1" inkscape:groupmode="layer" id="layer1" transform="translate(-144.71, -386.784)">
    <g id="g7959" transform="translate(-367.107, 220.853)">
      <path style="fill: #333333; fill-opacity: 1; stroke: rgb(0, 0, 0); stroke-width: 0pt; stroke-miterlimit: 4; stroke-dasharray: none; stroke-opacity: 1;" d="M 561.81678,167.85262 C 552.66146,193.27801 536.26061,215.24255 515.09803,231.25887 L 515.09803,259.00887 C 533.34649,247.96724 549.24022,233.39648 561.81678,216.25887 C 574.39335,233.39648 590.28707,247.96724 608.53553,259.00887 L 608.53553,231.25887 C 587.37295,215.24255 570.9721,193.27801 561.81678,167.85262 z " id="path7629"/>
      <path sodipodi:nodetypes="ccccccc" style="fill: #C7C7C7; fill-opacity: 1; stroke: rgb(0, 0, 0); stroke-width: 0pt; stroke-miterlimit: 4; stroke-dasharray: none; stroke-opacity: 1;" d="M 561.81678,184.29012 C 552.01477,204.07874 537.78769,221.31289 520.44178,234.66512 L 520.44178,247.47762 C 536.80497,236.14272 550.884,221.7288 561.81678,205.07137 C 572.74956,221.7288 586.82862,236.14272 603.19178,247.47762 L 603.19178,234.66512 C 585.84587,221.31289 571.61882,204.07874 561.81678,184.29012 z " id="path7627"/>
    </g>
  </g>
</svg>
