<?xml version="1.0" encoding="iso-8859-1"?>
<!-- Generator: Adobe Illustrator 18.1.1, SVG Export Plug-In . SVG Version: 6.00 Build 0)  -->
<svg version="1.1" id="Capa_1" xmlns="http://www.w3.org/2000/svg" xmlns:xlink="http://www.w3.org/1999/xlink" x="0px" y="0px"
	 viewBox="0 0 612 612" style="enable-background:new 0 0 612 612;" xml:space="preserve">
<g>
	<g>
		<path d="M575.048,455.961V113.532c0-10.534-8.539-19.072-19.072-19.072H56.024c-10.534,0-19.072,8.539-19.072,19.072v342.429h62.9
			v-15.19c0-10.534,8.539-19.072,19.072-19.072h103.374c10.534,0,19.072,8.539,19.072,19.072v15.19H575.048z M326.115,227.03
			c0-8.778,7.116-15.894,15.894-15.894h56.581c8.778,0,15.894,7.116,15.894,15.894v6.357c0,8.778-7.116,15.894-15.894,15.894
			h-56.581c-8.778,0-15.894-7.116-15.894-15.894V227.03z M326.115,302.543c0-8.778,7.116-15.894,15.894-15.894h56.581
			c8.778,0,15.894,7.116,15.894,15.894v6.357c0,8.778-7.116,15.894-15.894,15.894h-56.581c-8.778,0-15.894-7.116-15.894-15.894
			V302.543z M235.639,359.093h-24.047c-8.778,0-15.894-7.116-15.894-15.894v-24.047V216.778v-24.047
			c0-8.778,7.116-15.894,15.894-15.894h24.047h36.694c8.778,0,15.894,7.116,15.894,15.894v8.153c0,8.778-7.116,15.894-15.894,15.894
			h-36.694v31.217h36.694c8.778,0,15.894,7.116,15.894,15.894v8.153c0,8.778-7.116,15.894-15.894,15.894h-36.694v31.217h36.694
			c8.778,0,15.894,7.116,15.894,15.894v8.153c0,8.778-7.116,15.894-15.894,15.894L235.639,359.093L235.639,359.093z"/>
		<path d="M596.44,475.033h-21.392H36.952H15.56C6.966,475.033,0,482,0,490.593v11.387c0,8.594,6.966,15.56,15.56,15.56h580.88
			c8.593,0,15.56-6.966,15.56-15.56v-11.387C612,482,605.034,475.033,596.44,475.033z"/>
	</g>
</g>
<g>
</g>
<g>
</g>
<g>
</g>
<g>
</g>
<g>
</g>
<g>
</g>
<g>
</g>
<g>
</g>
<g>
</g>
<g>
</g>
<g>
</g>
<g>
</g>
<g>
</g>
<g>
</g>
<g>
</g>
</svg>
