<?xml version="1.0" encoding="iso-8859-1"?>
<!-- Generator: Adobe Illustrator 18.1.1, SVG Export Plug-In . SVG Version: 6.00 Build 0)  -->
<svg version="1.1" id="Capa_1" xmlns="http://www.w3.org/2000/svg" xmlns:xlink="http://www.w3.org/1999/xlink" x="0px" y="0px"
	 viewBox="0 0 612 612" style="enable-background:new 0 0 612 612;" xml:space="preserve">
<g>
	<path d="M128.808,612h354.384c11.283,0,20.43-9.147,20.43-20.43V20.43c0-11.284-9.147-20.43-20.43-20.43H128.808
		c-11.283,0-20.43,9.147-20.43,20.43v571.14C108.378,602.853,117.525,612,128.808,612z M286.31,572.425h-49.867v-49.867h49.867
		V572.425z M286.31,483.43h-49.867v-49.867h49.867V483.43z M286.31,394.436h-49.867v-49.867h49.867V394.436z M286.31,305.442
		h-49.867v-49.867h49.867V305.442z M286.31,216.447h-49.867V166.58h49.867V216.447z M375.556,572.425h-49.867v-49.867h49.867
		V572.425z M375.556,483.43h-49.867v-49.867h49.867V483.43z M375.556,394.436h-49.867v-49.867h49.867V394.436z M375.556,305.442
		h-49.867v-49.867h49.867V305.442z M375.556,216.447h-49.867V166.58h49.867V216.447z M464.803,572.425h-49.867V433.564h49.867
		V572.425z M464.803,394.436h-49.867v-49.867h49.867V394.436z M464.803,305.442h-49.867v-49.867h49.867V305.442z M464.803,216.447
		h-49.867V166.58h49.867V216.447z M147.197,39.677h317.605v88.361H147.197V39.677z M147.197,166.58h49.867v49.867h-49.867
		L147.197,166.58L147.197,166.58z M147.197,255.575h49.867v49.867h-49.867L147.197,255.575L147.197,255.575z M147.197,344.569
		h49.867v49.867h-49.867L147.197,344.569L147.197,344.569z M147.197,433.564h49.867v49.867h-49.867L147.197,433.564L147.197,433.564
		z M147.197,522.558h49.867v49.867h-49.867L147.197,522.558L147.197,522.558z"/>
</g>
<g>
</g>
<g>
</g>
<g>
</g>
<g>
</g>
<g>
</g>
<g>
</g>
<g>
</g>
<g>
</g>
<g>
</g>
<g>
</g>
<g>
</g>
<g>
</g>
<g>
</g>
<g>
</g>
<g>
</g>
</svg>
