<?xml version="1.0" encoding="iso-8859-1"?>
<!-- Generator: Adobe Illustrator 18.1.1, SVG Export Plug-In . SVG Version: 6.00 Build 0)  -->
<svg version="1.1" id="Capa_1" xmlns="http://www.w3.org/2000/svg" xmlns:xlink="http://www.w3.org/1999/xlink" x="0px" y="0px"
	 viewBox="0 0 277.426 277.426" style="enable-background:new 0 0 277.426 277.426;" xml:space="preserve" width="11px" height="11px">
<g id="Let_x27_s_Rock">
	<path style="fill-rule:evenodd;clip-rule:evenodd;" d="M228.205,8.949c-9.885,0-17.898,8.014-17.898,17.899v62.644
		c0-9.885-8.014-17.898-17.898-17.898c-9.886,0-17.898,8.013-17.898,17.898c0-9.885-8.015-17.898-17.899-17.898
		s-17.898,8.013-17.898,17.898V17.898C138.713,8.014,130.699,0,120.814,0c-9.884,0-17.898,8.014-17.898,17.898v125.289
		c0,0-32.853-35.797-53.696-35.797c-15.321-0.002-17.898,6.638-17.898,17.898c0,8.831,12.244,12.067,31.165,40.845
		c10.941,16.642,7.449,24.728,24.584,40.846c3.015,2.842,7.993,6.664,14.119,10.39c0.327,0.304,0.778,0.594,1.42,0.869
		c0.763,0.332,1.283,0.732,1.99,1.077c1.107,0.62,2.197,1.228,3.356,1.821c12.129,8.299,12.858,31.766,12.858,38.389
		c0,13.403,4.235,17.899,17.55,17.899h71.943c12.756,0,17.898-5.335,17.898-17.899v-26.847c0-14.47,17.898-55.512,17.898-98.441
		V26.848C246.103,16.962,238.09,8.949,228.205,8.949z"/>
</g>
<g>
</g>
<g>
</g>
<g>
</g>
<g>
</g>
<g>
</g>
<g>
</g>
<g>
</g>
<g>
</g>
<g>
</g>
<g>
</g>
<g>
</g>
<g>
</g>
<g>
</g>
<g>
</g>
<g>
</g>
</svg>
