<?xml version="1.0" encoding="iso-8859-1"?>
<!-- Generator: Adobe Illustrator 18.1.1, SVG Export Plug-In . SVG Version: 6.00 Build 0)  -->
<svg version="1.1" id="Capa_1" xmlns="http://www.w3.org/2000/svg" xmlns:xlink="http://www.w3.org/1999/xlink" x="0px" y="0px"
	 viewBox="0 0 280 280" style="enable-background:new 0 0 280 280;" xml:space="preserve">
<g>
	<path d="M79.59,47.706h109.263c0.653,0,1.26-0.321,1.63-0.858c0.369-0.533,0.45-1.217,0.217-1.826
		c-7.187-18.799-15.338-33.707-24.226-44.314C166.1,0.26,165.544,0,164.959,0h-61.475c-0.584,0-1.138,0.26-1.515,0.707
		c-8.888,10.608-17.038,25.516-24.226,44.314c-0.232,0.609-0.151,1.293,0.218,1.826C78.33,47.385,78.941,47.706,79.59,47.706z"/>
	<path d="M61.317,108.089c-7.954,39.002-12.157,83.884-12.157,129.794c0,1.092,0.884,1.977,1.976,1.977h166.17
		c1.092,0,1.978-0.885,1.978-1.977c0-21.546-0.917-42.695-2.684-63.055c29.099-46.428,37.677-75.464,27.789-93.614
		c-9.315-17.099-31.996-19.404-52.954-19.404L34.033,61.857c-0.854,0-1.614,0.549-1.877,1.361
		c-2.555,7.806,5.567,15.123,14.167,22.868C54.416,93.374,62.781,100.91,61.317,108.089z M227.719,90.295
		c2.891,5.306,3.886,18.903-14.619,53.018c-3.052-22.306-7.197-43.277-12.35-62.308C212.164,81.588,224.098,83.647,227.719,90.295z
		 M70.915,171.145c1.402-18.791,3.812-36.652,7.164-53.085c0.806-3.947,4.659-6.493,8.604-5.689
		c3.947,0.805,6.494,4.657,5.689,8.604c-3.229,15.831-5.554,33.077-6.911,51.256c-0.286,3.832-3.484,6.751-7.266,6.751
		c-0.183,0-0.366-0.007-0.551-0.021C73.629,178.663,70.615,175.163,70.915,171.145z M69.639,197.476
		c0.092-4.027,3.465-7.237,7.459-7.125c4.027,0.092,7.217,3.432,7.125,7.459c-0.089,3.876-0.134,7.815-0.134,11.708
		c0,4.028-3.266,7.294-7.294,7.294c-4.028,0-7.294-3.266-7.294-7.294C69.502,205.514,69.548,201.462,69.639,197.476z"/>
	<path d="M217.686,249.547H50.759c-1.089,0-1.976,0.887-1.976,1.98v26.496c0,1.09,0.887,1.977,1.976,1.977h166.927
		c1.091,0,1.978-0.887,1.978-1.977v-26.496C219.664,250.434,218.777,249.547,217.686,249.547z"/>
</g>
<g>
</g>
<g>
</g>
<g>
</g>
<g>
</g>
<g>
</g>
<g>
</g>
<g>
</g>
<g>
</g>
<g>
</g>
<g>
</g>
<g>
</g>
<g>
</g>
<g>
</g>
<g>
</g>
<g>
</g>
</svg>
