<svg class="pictogram-svg" version="1.1" xmlns="http://www.w3.org/2000/svg" xmlns:xlink="http://www.w3.org/1999/xlink" width="11px" height="11px" viewBox="0 0 32 32">
          <path fill="rgba(0, 0, 0, 1)" d="M19.395 0.195c3.712 0 7.425 0.032 11.136-0.021 1.003-0.014 1.319 0.268 1.313 1.294-0.042 7.056-0.145 14.115 0.022 21.168 0.108 4.555-3.117 9.176-9.080 9.222-4.481 0.035-8.963 0.044-13.444-0.004-4.536-0.048-7.873-2.643-8.874-6.806-0.093-0.386-0.149-0.79-0.154-1.186-0.070-5.316-0.173-10.635 0.035-15.947 0.157-3.99 3.823-7.541 7.813-7.642 3.742-0.095 7.489-0.021 11.234-0.021 0-0.019 0-0.038 0-0.057zM22.875 24.577c2.286-0.002 4.040-1.457 4.174-3.566 0.171-2.696-1.061-4.088-3.873-4.414-0.592-0.069-1.195-0.135-1.749-0.394-0.828-0.389-1.325-0.987-1.272-1.955 0.052-0.98 0.557-1.61 1.458-1.947 1.031-0.387 1.957-0.159 2.83 0.463 0.418 0.298 0.893 0.404 1.241-0.075 0.371-0.512 0.001-0.872-0.378-1.177-0.586-0.473-1.283-0.71-2.008-0.846-2.225-0.417-4.259 0.953-4.711 3.153-0.378 1.84 0.916 3.613 2.989 4.063 0.552 0.12 1.124 0.148 1.684 0.238 1.483 0.24 2.331 1.171 2.252 2.456-0.090 1.468-1.127 2.424-2.609 2.494-1.218 0.058-2.123-0.486-2.875-1.353-0.366-0.423-0.758-0.747-1.265-0.338-0.532 0.429-0.215 0.917 0.1 1.319 0.985 1.256 2.253 1.955 4.013 1.88zM12.186 10.784c0-1.277-0.026-2.41 0.010-3.539 0.022-0.682-0.285-0.86-0.907-0.853-0.851 0.011-0.744 0.612-0.745 1.128-0.010 3.847-0.013 7.695-0.001 11.542 0.002 0.767 0.010 1.544 0.132 2.297 0.412 2.539 3.753 4.174 5.972 2.953 0.352-0.194 0.599-0.471 0.475-0.89-0.131-0.445-0.473-0.633-0.935-0.552-0.196 0.034-0.383 0.122-0.579 0.155-1.942 0.323-3.386-0.724-3.41-2.535-0.034-2.475 0.006-4.951-0.021-7.427-0.007-0.614 0.216-0.838 0.813-0.824 0.936 0.022 1.873 0.012 2.81-0.010 0.496-0.012 0.988-0.141 0.967-0.765-0.020-0.629-0.508-0.688-1.014-0.684-1.134 0.009-2.267 0.003-3.568 0.003zM6.235 17.579c0 2.003 0.010 4.005-0.007 6.008-0.005 0.532 0.056 0.897 0.728 0.905 0.689 0.007 0.826-0.321 0.823-0.927-0.018-3.939-0.014-7.877-0.004-11.815 0.001-0.558-0.098-1.056-0.744-1.083-0.741-0.031-0.803 0.521-0.8 1.106 0.012 1.936 0.005 3.872 0.004 5.807zM7.006 6.236c-0.605 0.079-1.021 0.371-1.022 1.007-0.001 0.611 0.337 1.019 0.965 1.031 0.615 0.012 0.992-0.339 1.014-0.973 0.022-0.65-0.408-0.922-0.957-1.064z" />
        </svg>