<?xml version="1.0" encoding="iso-8859-1"?>
<!-- Generator: Adobe Illustrator 16.0.0, SVG Export Plug-In . SVG Version: 6.00 Build 0)  -->
<!DOCTYPE svg PUBLIC "-//W3C//DTD SVG 1.1//EN" "http://www.w3.org/Graphics/SVG/1.1/DTD/svg11.dtd">
<svg version="1.1" id="Capa_1" xmlns="http://www.w3.org/2000/svg" xmlns:xlink="http://www.w3.org/1999/xlink" x="0px" y="0px"
	 width="533.901px" height="533.901px" viewBox="0 0 533.901 533.901" style="enable-background:new 0 0 533.901 533.901;"
	 xml:space="preserve">
<g>
	<g>
		<path d="M372.325,46.965V342.49c-0.012,0.712-4.788,71.44-104.627,71.813c-0.263,0-0.49,0.023-0.753,0.023
			c-104.171,0-105.368-68.801-105.368-71.744V46.965H42.003v295.617c0,76.906,59.903,191.318,224.942,191.318
			c0.251,0,0.491-0.023,0.753-0.023c169.364-0.374,224.2-128.962,224.2-191.295V46.965H372.325z M243.783,509.122
			C113.794,499.231,65.918,406.223,65.918,342.583V70.88h71.744v271.702c0,30.432,22.863,85.815,106.121,94.492V509.122z"/>
		<polygon points="209.692,220.026 337.247,86.306 265.019,93.901 332.074,0 298.806,30.758 277.052,50.866 200.21,121.868 
			281.431,114.838 		"/>
	</g>
</g>
<g>
</g>
<g>
</g>
<g>
</g>
<g>
</g>
<g>
</g>
<g>
</g>
<g>
</g>
<g>
</g>
<g>
</g>
<g>
</g>
<g>
</g>
<g>
</g>
<g>
</g>
<g>
</g>
<g>
</g>
</svg>
