<?xml version="1.0" encoding="iso-8859-1"?>
<!-- Generator: Adobe Illustrator 18.1.1, SVG Export Plug-In . SVG Version: 6.00 Build 0)  -->
<svg version="1.1" id="Capa_1" xmlns="http://www.w3.org/2000/svg" xmlns:xlink="http://www.w3.org/1999/xlink" x="0px" y="0px"
	 viewBox="0 0 612.001 612.001" style="enable-background:new 0 0 612.001 612.001;" xml:space="preserve">
<g>
	<g>
		<path d="M73.02,538.981c24.914,24.914,54.26,43.899,87.221,56.427C189.238,606.43,219.815,612,251.25,612
			c2.676,0,5.359-0.04,8.047-0.121c33.813-1.017,66.894-8.39,98.324-21.916c32.29-13.895,61.423-33.701,86.59-58.869l93.818-93.818
			l-54.452-54.452l-38.765-38.765l-15.687-15.688l-93.819,93.819c-44.462,44.461-113.269,48-153.383,7.887
			c-40.113-40.114-36.576-108.921,7.887-153.383l93.818-93.818l-54.452-54.452l-54.452-54.453l-93.817,93.819
			c-25.167,25.167-44.973,54.3-58.869,86.59C8.511,285.81,1.138,318.891,0.121,352.704c-1.03,34.263,4.511,67.59,16.471,99.056
			C29.12,484.722,48.105,514.067,73.02,538.981z"/>
		<path d="M241.325,6.499l-43.468,43.468l109.775,109.775l43.468-43.468c8.665-8.665,8.665-22.714,0-31.379L272.704,6.499
			C264.039-2.166,249.99-2.166,241.325,6.499z"/>
		<path d="M495.726,260.9l-43.468,43.468l109.776,109.775l43.468-43.468c8.665-8.665,8.665-22.714,0-31.379L527.105,260.9
			C518.439,252.235,504.39,252.235,495.726,260.9z"/>
	</g>
</g>
<g>
</g>
<g>
</g>
<g>
</g>
<g>
</g>
<g>
</g>
<g>
</g>
<g>
</g>
<g>
</g>
<g>
</g>
<g>
</g>
<g>
</g>
<g>
</g>
<g>
</g>
<g>
</g>
<g>
</g>
</svg>
