<?xml version="1.0" encoding="iso-8859-1"?>
<!-- Generator: Adobe Illustrator 17.1.0, SVG Export Plug-In . SVG Version: 6.00 Build 0)  -->
<!DOCTYPE svg PUBLIC "-//W3C//DTD SVG 1.1//EN" "http://www.w3.org/Graphics/SVG/1.1/DTD/svg11.dtd">
<svg version="1.1" id="Capa_1" xmlns="http://www.w3.org/2000/svg" xmlns:xlink="http://www.w3.org/1999/xlink" x="0px" y="0px"
	 viewBox="0 0 465 465" style="enable-background:new 0 0 465 465;" xml:space="preserve" width="11px" height="11px">
<g>
	<path d="M195.905,262.635c1.295,0,2.59-0.335,3.75-1.005l108.486-62.635c2.32-1.34,3.75-3.815,3.75-6.495s-1.43-5.155-3.75-6.495
		L199.655,123.37c-2.32-1.34-5.18-1.34-7.5,0s-3.75,3.815-3.75,6.495v125.27c0,2.68,1.43,5.155,3.75,6.495
		C193.315,262.3,194.61,262.635,195.905,262.635z M203.405,142.855l85.986,49.645l-85.986,49.645V142.855z"/>
	<path d="M231.989,75.847c-28.358,0-55.694,10.298-76.973,28.998c-21.082,18.525-34.786,43.966-38.588,71.633
		c-0.564,4.104,2.305,7.888,6.409,8.451c4.101,0.57,7.887-2.305,8.451-6.408c6.87-49.982,50.162-87.674,100.701-87.674
		c56.052,0,101.654,45.602,101.654,101.653s-45.602,101.653-101.654,101.653c-50.54,0-93.832-37.692-100.701-87.676
		c-0.564-4.104-4.344-6.979-8.451-6.408c-4.104,0.563-6.973,4.348-6.409,8.451c3.803,27.668,17.506,53.108,38.588,71.635
		c21.279,18.699,48.615,28.998,76.973,28.998c64.323,0,116.654-52.33,116.654-116.653S296.312,75.847,231.989,75.847z"/>
	<path d="M417.5,391.5h-370c-4.142,0-7.5,3.357-7.5,7.5s3.358,7.5,7.5,7.5h370c4.143,0,7.5-3.357,7.5-7.5S421.643,391.5,417.5,391.5
		z"/>
	<path d="M457.5,18.5H7.5C3.358,18.5,0,21.857,0,26v333v80c0,4.143,3.358,7.5,7.5,7.5h450c4.143,0,7.5-3.357,7.5-7.5v-80V26
		C465,21.857,461.643,18.5,457.5,18.5z M15,33.5h435v318H15V33.5z M15,431.5v-65h435v65H15z"/>
</g>
</svg>
