<?xml version="1.0" encoding="UTF-8" standalone="no"?>
<svg
   xmlns:dc="http://purl.org/dc/elements/1.1/"
   xmlns:cc="http://creativecommons.org/ns#"
   xmlns:rdf="http://www.w3.org/1999/02/22-rdf-syntax-ns#"
   xmlns:svg="http://www.w3.org/2000/svg"
   xmlns="http://www.w3.org/2000/svg"
   xmlns:sodipodi="http://sodipodi.sourceforge.net/DTD/sodipodi-0.dtd"
   xmlns:inkscape="http://www.inkscape.org/namespaces/inkscape"
   width="377.54001"
   height="495"
   viewBox="0 0 302.03201 396"
   version="1.1"
   id="svg2"
   inkscape:version="0.47 r22583"
   sodipodi:docname="MA_-_DOC_Sergeant.svg">
  <metadata
     id="metadata19">
    <rdf:RDF>
      <cc:Work
         rdf:about="">
        <dc:format>image/svg+xml</dc:format>
        <dc:type
           rdf:resource="http://purl.org/dc/dcmitype/StillImage" />
      </cc:Work>
    </rdf:RDF>
  </metadata>
  <defs
     id="defs17">
    <inkscape:perspective
       sodipodi:type="inkscape:persp3d"
       inkscape:vp_x="0 : 241.25 : 1"
       inkscape:vp_y="0 : 1000 : 0"
       inkscape:vp_z="375 : 241.25 : 1"
       inkscape:persp3d-origin="187.5 : 160.83333 : 1"
       id="perspective21" />
  </defs>
  <sodipodi:namedview
     pagecolor="#ffffff"
     bordercolor="#333333"
     borderopacity="1"
     objecttolerance="10"
     gridtolerance="10"
     guidetolerance="10"
     inkscape:pageopacity="0"
     inkscape:pageshadow="2"
     inkscape:window-width="1280"
     inkscape:window-height="750"
     id="namedview15"
     showgrid="false"
     inkscape:zoom="0.8610004"
     inkscape:cx="172.90795"
     inkscape:cy="232.9864"
     inkscape:window-x="-8"
     inkscape:window-y="-8"
     inkscape:window-maximized="1"
     inkscape:current-layer="svg2" />
  <g
     id="#ffffffff"
     transform="translate(-14.729999,24.570024)" />
  <g
     id="g2827"
     transform="matrix(1.0871454,0,0,1.0871454,-11.367893,-10.585859)">
    <g
       id="#333333">
      <path
         sodipodi:nodetypes="cccccccccccccccccccccccccccccccccccccsccccccccccccccccccc"
         id="path6"
         d="m 149.06,13.75 c 1.15822,2.811488 1.56918,3.595654 2.34919,5.256674 17.94,53.34 49.64747,101.609996 88.19747,142.349996 13.89,13.86 28.21334,27.79333 45.18334,37.92333 0.01,57.33 -0.03,114.66 0.02,171.99 -2.45,0 -4.42,-1.49 -6.37,-2.76 -25.88,-15.39 -51.33,-31.57 -75.63,-49.36 -18.32,-13.33 -35.77,-27.84 -53.12,-42.39 -25.19,21.44 -51.03,42.25 -78.75,60.36 -15.13,10.31 -30.79,19.79 -46.41,29.31 -3.25,1.65 -6.05,4.32 -9.73,5 -0.09,-57.37 0.03,-114.73 -0.07,-172.1 16.14,-9.92 29.81,-23.16 43.3,-36.31 C 69.5,150.79 80.66,138.24 90.81,124.85 116.2,91.4 136.58,53.92 149.06,13.75 m 0.31,48.87 c -26.87,50.24 -62.05,96.37 -105.29,133.62 -2.96,2.64 -6.38,4.86 -8.99,7.83 -0.31,11 0.48,22 0.2,33.01 1.97,-0.87 3.88,-1.9 5.69,-3.09 11.79,-7.56 22.69,-16.45 32.9,-26.02 11.8,-10.25 22.21,-21.94 32.75,-33.43 15.22,-17.51 29.7,-35.7 42.95,-54.76 11.6,15.85 23.28,31.69 36.14,46.55 7.46,9.13 15.68,17.59 23.69,26.23 16.7,16.59 34.14,32.89 54.68,44.66 0.12,-11.31 -0.24,-22.62 -0.04,-33.93 -10.35,-8.02 -20.15,-16.74 -29.36,-26.05 -33.47,-32.78 -61.2,-71.17 -83.64,-112.23 -0.52,-0.82 -1.08,-1.62 -1.68,-2.39 m 0.05,82.1 c -17.41,23.81 -36.36,46.55 -57.41,67.23 -17.15,17.13 -36.18,32.37 -56.77,45.19 -0.42,10.7 -0.2,21.42 -0.21,32.12 13.39,-7.13 25.84,-15.88 37.96,-24.97 15.06,-11.54 29.61,-23.79 42.85,-37.41 12.14,-11.87 23.59,-24.48 33.67,-38.16 9.54,11.66 19.29,23.18 29.79,34 9.17,9.45 19,18.2 28.9,26.86 17.56,14.6 35.8,28.62 55.85,39.65 -0.04,-10.74 -0.15,-21.48 0.05,-32.21 -12.38,-7.82 -24.43,-16.19 -35.55,-25.73 -12.05,-9.85 -22.91,-21.03 -33.81,-32.11 -16.27,-17.15 -30.92,-35.75 -45.32,-54.46 m -19.69,91 c -29.03,26.95 -60.74,51.1 -94.63,71.65 -0.21,11.45 -0.07,22.91 -0.07,34.37 4.93,-2.48 9.36,-5.79 14.04,-8.68 27.9,-18.18 55.24,-37.49 79.84,-60.01 7.43,-6.28 13.87,-13.62 20.92,-20.32 5.06,5.73 10.29,11.32 16.11,16.27 27.11,25.57 57.86,46.9 89.09,67.1 2.94,1.81 5.72,3.93 8.92,5.3 0.11,-11.39 0.02,-22.78 0.05,-34.18 -26.76,-16.2 -51.99,-34.85 -75.92,-54.97 -13.26,-11.61 -26.57,-23.31 -38.23,-36.57 -6.78,6.6 -13.3,13.47 -20.12,20.04 z"
         style="fill:#333333" />
    </g>
    <g
       id="#C7C7C7">
      <path
         id="path9"
         d="m 149.37,62.62 c 0.6,0.77 1.16,1.57 1.68,2.39 22.44,41.06 50.17,79.45 83.64,112.23 9.21,9.31 19.01,18.03 29.36,26.05 -0.2,11.31 0.16,22.62 0.04,33.93 -20.54,-11.77 -37.98,-28.07 -54.68,-44.66 -8.01,-8.64 -16.23,-17.1 -23.69,-26.23 -12.86,-14.86 -24.54,-30.7 -36.14,-46.55 -13.25,19.06 -27.73,37.25 -42.95,54.76 -10.54,11.49 -20.95,23.18 -32.75,33.43 -10.21,9.57 -21.11,18.46 -32.9,26.02 -1.81,1.19 -3.72,2.22 -5.69,3.09 0.28,-11.01 -0.51,-22.01 -0.2,-33.01 2.61,-2.97 6.03,-5.19 8.99,-7.83 43.24,-37.25 78.42,-83.38 105.29,-133.62 z"
         style="fill:#C7C7C7" />
      <path
         id="path11"
         d="m 149.42,144.72 c 14.4,18.71 29.05,37.31 45.32,54.46 10.9,11.08 21.76,22.26 33.81,32.11 11.12,9.54 23.17,17.91 35.55,25.73 -0.2,10.73 -0.09,21.47 -0.05,32.21 C 244,278.2 225.76,264.18 208.2,249.58 c -9.9,-8.66 -19.73,-17.41 -28.9,-26.86 -10.5,-10.82 -20.25,-22.34 -29.79,-34 -10.08,13.68 -21.53,26.29 -33.67,38.16 -13.24,13.62 -27.79,25.87 -42.85,37.41 -12.12,9.09 -24.57,17.84 -37.96,24.97 0.01,-10.7 -0.21,-21.42 0.21,-32.12 20.59,-12.82 39.62,-28.06 56.77,-45.19 21.05,-20.68 40,-43.42 57.41,-67.23 z"
         style="fill:#C7C7C7" />
      <path
         id="path13"
         d="m 129.73,235.72 c 6.82,-6.57 13.34,-13.44 20.12,-20.04 11.66,13.26 24.97,24.96 38.23,36.57 23.93,20.12 49.16,38.77 75.92,54.97 -0.03,11.4 0.06,22.79 -0.05,34.18 -3.2,-1.37 -5.98,-3.49 -8.92,-5.3 -31.23,-20.2 -61.98,-41.53 -89.09,-67.1 -5.82,-4.95 -11.05,-10.54 -16.11,-16.27 -7.05,6.7 -13.49,14.04 -20.92,20.32 -24.6,22.52 -51.94,41.83 -79.84,60.01 -4.68,2.89 -9.11,6.2 -14.04,8.68 0,-11.46 -0.14,-22.92 0.07,-34.37 33.89,-20.55 65.6,-44.7 94.63,-71.65 z"
         style="fill:#C7C7C7" />
    </g>
  </g>
</svg>
