<?xml version="1.0" encoding="iso-8859-1"?>
<!-- Generator: Adobe Illustrator 17.1.0, SVG Export Plug-In . SVG Version: 6.00 Build 0)  -->
<!DOCTYPE svg PUBLIC "-//W3C//DTD SVG 1.1//EN" "http://www.w3.org/Graphics/SVG/1.1/DTD/svg11.dtd">
<svg version="1.1" id="Capa_1" xmlns="http://www.w3.org/2000/svg" xmlns:xlink="http://www.w3.org/1999/xlink" x="0px" y="0px"
	 width="29px" height="29px" viewBox="0 0 198.926 198.926" style="enable-background:new 0 0 198.926 198.926;" xml:space="preserve">
<path d="M191.655,188.926h-20.45l-8.564-33.99l-3.377-13.403c0,0,0-0.001,0-0.001l-10.907-43.291l0,0l-11.408-45.278
	c0-0.001-0.001-0.002-0.001-0.004L124.556,3.778C123.996,1.557,121.998,0,119.707,0H79.218c-2.291,0-4.289,1.557-4.849,3.778
	L60.994,56.864L50.569,98.241c0,0.001,0,0.003-0.001,0.004l-10.906,43.288l0,0l-11.941,47.393H7.271c-2.761,0-5,2.238-5,5
	s2.239,5,5,5h24.347h135.69h0.02h24.327c2.761,0,5-2.238,5-5S194.416,188.926,191.655,188.926z M38.034,188.926l10.373-41.171
	h102.112l10.373,41.171H38.034z M61.834,94.463l8.889-35.278h57.481l8.888,35.278H61.834z"/>
<g>
</svg>
