<?xml version="1.0" encoding="iso-8859-1"?>
<!-- Generator: Adobe Illustrator 16.0.0, SVG Export Plug-In . SVG Version: 6.00 Build 0)  -->
<!DOCTYPE svg PUBLIC "-//W3C//DTD SVG 1.1//EN" "http://www.w3.org/Graphics/SVG/1.1/DTD/svg11.dtd">
<svg version="1.1" id="Capa_1" xmlns="http://www.w3.org/2000/svg" xmlns:xlink="http://www.w3.org/1999/xlink" x="0px" y="0px"
	 width="49.999px" height="49.999px" viewBox="0 0 49.999 49.999" style="enable-background:new 0 0 49.999 49.999;"
	 xml:space="preserve">
<g>
	<path d="M44.027,36.7c1.111-0.451,1.897-1.537,1.897-2.808V13.114c0-1.671-1.36-3.032-3.032-3.032H7.107
		c-1.671,0-3.032,1.361-3.032,3.032v20.778c0,1.271,0.787,2.355,1.898,2.808H0c0,2.554,0.994,3.217,2.214,3.217h45.571
		c1.22,0,2.214-0.663,2.214-3.217H44.027z M30.102,17.846c0.244-0.242,0.64-0.241,0.883,0.001c0.246,0.246,0.246,0.644,0,0.886
		c-0.244,0.242-0.641,0.242-0.883,0C29.855,18.49,29.855,18.093,30.102,17.846z M25.419,14.08c1.151,0,2.084,0.937,2.084,2.087
		c0,1.153-0.933,2.088-2.084,2.088c-1.153,0-2.087-0.935-2.087-2.088C23.332,15.017,24.266,14.08,25.419,14.08z M26.67,30.662
		c0,0.695-0.562,1.256-1.251,1.256c-0.692,0-1.253-0.561-1.253-1.256c0-0.688,0.561-1.247,1.253-1.247
		C26.107,29.415,26.67,29.975,26.67,30.662z M18.964,16.964c0.734-0.731,1.922-0.731,2.654,0c0.736,0.73,0.735,1.923,0,2.656
		c-0.731,0.73-1.919,0.73-2.654,0C18.23,18.887,18.23,17.694,18.964,16.964z M16.5,23.417c0-0.924,0.747-1.672,1.669-1.671
		c0.924-0.001,1.668,0.747,1.668,1.672c0,0.92-0.747,1.665-1.668,1.665C17.247,25.083,16.5,24.336,16.5,23.417z M19.26,29.575
		c-0.572-0.573-0.572-1.494,0-2.067c0.571-0.572,1.494-0.566,2.065,0c0.569,0.573,0.569,1.494,0,2.067
		C20.754,30.145,19.83,30.145,19.26,29.575z M29.621,38.491h-9.238v-1.566h9.238V38.491z M31.279,29.28
		c-0.406,0.403-1.065,0.405-1.473,0.002c-0.408-0.412-0.408-1.071,0-1.478c0.406-0.41,1.066-0.41,1.473,0
		C31.688,28.213,31.688,28.87,31.279,29.28z M32.666,24.253c-0.461,0-0.835-0.376-0.835-0.836s0.374-0.836,0.835-0.836
		s0.834,0.376,0.834,0.836S33.127,24.253,32.666,24.253z"/>
</g>
<g>
</g>
<g>
</g>
<g>
</g>
<g>
</g>
<g>
</g>
<g>
</g>
<g>
</g>
<g>
</g>
<g>
</g>
<g>
</g>
<g>
</g>
<g>
</g>
<g>
</g>
<g>
</g>
<g>
</g>
</svg>
